# xmcd CD database file
#
# Track frame offsets:
#	150
#	32605
#	60947
#	86017
#	114987
#	154632
#	185887
#	207709
#	243259
#	278723
#
# Disc length: 3830 seconds
#
# Revision: 0
# Processed by: cddbd v1.4PL0 Copyright (c) Steve Scherf et al.
# Submitted via: CDex 1.50Beta5
#
DISCID=830ef40a
DTITLE=Joe Roccisano - The Joe Roccisano Nonet
DYEAR=1998
DGENRE=Jazz
TTITLE0=Moment's Notice
TTITLE1=Mr. Day
TTITLE2=Days of Wine and Roses
TTITLE3=Springsville
TTITLE4=Charade
TTITLE5=Some Other Time
TTITLE6=So In Love
TTITLE7=No More Blues
TTITLE8=America
TTITLE9=Datatrack
EXTD=YEAR: 1998
EXTT0=
EXTT1=
EXTT2=
EXTT3=
EXTT4=
EXTT5=
EXTT6=
EXTT7=
EXTT8=
EXTT9=
PLAYORDER=
